<?xml version="1.0" encoding="UTF-8" standalone="no"?>
<!DOCTYPE svg PUBLIC "-//W3C//DTD SVG 1.1//EN" "http://www.w3.org/Graphics/SVG/1.1/DTD/svg11.dtd">
<svg xmlns="http://www.w3.org/2000/svg" version="1.1" viewBox="0 0 501 423" width="501.0pt" height="423.0pt">
<path d="M 350.00 73.82 C 351.35 73.68 352.52 73.91 353.52 74.51 C 358.73 77.60 363.68 81.08 368.87 84.19 C 372.67 86.97 377.30 88.99 380.84 92.04 C 385.53 102.33 390.02 112.95 394.75 123.27 C 396.69 127.39 396.99 131.68 397.61 136.11 C 397.10 136.45 396.60 136.80 396.11 137.16 C 395.94 134.09 395.78 131.07 394.82 128.12 C 387.78 134.63 381.18 141.64 373.97 147.98 C 365.57 155.92 357.50 164.18 348.91 171.93 C 345.73 175.25 341.78 178.28 339.48 182.23 C 338.22 181.23 336.90 180.41 335.45 179.72 C 329.01 176.89 322.75 173.67 316.38 170.67 C 311.20 167.98 305.88 166.10 300.86 163.02 C 303.76 156.00 305.81 148.63 308.54 141.54 C 304.91 137.46 301.47 133.23 298.06 128.96 C 297.25 128.02 296.37 126.63 295.10 126.33 C 289.32 125.85 283.74 124.40 278.03 123.47 C 270.95 122.75 264.11 120.75 257.02 119.97 C 249.60 118.27 242.04 117.76 234.60 116.19 C 235.62 115.11 236.77 114.19 237.90 113.24 L 238.50 114.74 C 243.92 115.11 249.67 113.03 254.99 112.09 C 259.92 111.02 264.70 111.78 270.00 111.82 C 277.69 111.91 285.32 112.70 293.00 113.05 C 299.23 113.39 305.66 114.57 311.88 113.91 C 308.05 109.11 304.11 104.46 300.64 99.38 C 298.41 96.54 296.25 92.51 292.71 91.28 C 294.07 90.83 295.33 90.36 296.42 89.39 C 300.91 85.88 305.44 82.42 309.96 78.93 C 310.88 78.27 311.91 77.35 313.05 77.13 C 325.42 75.84 337.59 74.68 350.00 73.82 Z" fill="#000000" />
<path d="M 325.98 82.99 C 329.47 84.15 332.43 86.94 335.55 88.87 C 335.34 91.15 335.34 93.33 335.67 95.60 C 334.21 96.13 332.73 96.52 331.20 96.81 C 330.22 96.73 329.25 96.65 328.27 96.55 C 328.76 94.22 329.45 92.14 330.45 89.98 C 328.93 87.65 327.16 85.45 325.98 82.99 Z" fill="#d34141" />
<path d="M 351.52 90.70 L 352.14 91.11 C 349.46 95.26 346.56 99.26 343.95 103.45 C 342.41 106.00 340.38 108.18 338.83 110.72 C 338.66 110.15 338.49 109.58 338.32 109.00 C 335.30 108.97 332.27 108.93 329.25 108.86 C 325.59 106.18 321.67 103.92 318.08 101.14 C 322.43 99.58 326.86 98.45 331.20 96.81 C 332.73 96.52 334.21 96.13 335.67 95.60 C 340.91 93.89 346.22 92.20 351.52 90.70 Z" fill="#f4f4f4" />
<path d="M 292.71 91.28 C 296.25 92.51 298.41 96.54 300.64 99.38 C 304.11 104.46 308.05 109.11 311.88 113.91 C 305.66 114.57 299.23 113.39 293.00 113.05 C 285.32 112.70 277.69 111.91 270.00 111.82 C 264.70 111.78 259.92 111.02 254.99 112.09 C 249.67 113.03 243.92 115.11 238.50 114.74 L 237.90 113.24 C 243.22 108.40 248.72 103.71 254.27 99.13 C 259.84 98.66 265.29 96.84 270.86 95.96 C 275.61 95.24 280.17 93.77 284.94 93.13 C 285.98 94.65 287.25 94.57 287.82 92.76 L 289.02 92.24 C 289.79 93.89 291.55 93.40 291.66 91.62 L 292.71 91.28 Z" fill="#131313" />
<path d="M 289.02 92.24 C 289.79 91.83 290.68 91.62 291.66 91.62 C 291.55 93.40 289.79 93.89 289.02 92.24 Z" fill="#000000" />
<path d="M 284.94 93.13 C 285.90 92.75 286.86 92.62 287.82 92.76 C 287.25 94.57 285.98 94.65 284.94 93.13 Z" fill="#000000" />
<path d="M 343.95 103.45 C 345.97 104.98 346.62 107.09 347.80 109.22 C 348.80 111.18 350.07 113.06 350.89 115.11 C 350.53 118.22 347.81 120.95 347.10 124.01 C 348.21 129.27 351.38 133.86 351.95 139.11 C 349.59 136.39 347.88 133.23 345.64 130.40 C 344.17 128.37 342.25 126.39 341.27 124.07 C 341.82 121.33 342.96 118.75 343.55 116.02 C 341.90 114.32 340.30 112.59 338.83 110.72 C 340.38 108.18 342.41 106.00 343.95 103.45 Z" fill="#d34141" />
<path d="M 394.82 128.12 C 395.78 131.07 395.94 134.09 396.11 137.16 C 396.60 136.80 397.10 136.45 397.61 136.11 C 398.15 140.52 398.93 144.83 399.81 149.18 C 400.50 156.28 401.94 163.24 402.84 170.30 C 400.74 168.80 401.37 165.81 400.85 163.47 C 399.65 157.06 399.36 150.56 398.12 144.16 L 396.94 143.73 C 396.39 147.80 395.89 151.88 395.92 156.00 C 395.97 159.68 396.63 163.31 396.73 167.00 C 397.00 173.03 395.87 178.95 396.15 185.00 C 396.40 191.74 397.16 198.31 396.30 205.05 C 395.14 214.24 397.50 222.85 396.30 231.97 C 395.96 234.70 396.17 237.37 396.52 240.08 C 394.38 239.44 392.58 235.54 390.44 236.72 C 386.96 232.98 383.38 229.33 379.95 225.53 C 380.34 223.47 377.78 219.19 375.39 220.70 C 363.56 207.75 351.42 195.07 339.48 182.23 C 341.78 178.28 345.73 175.25 348.91 171.93 C 357.50 164.18 365.57 155.92 373.97 147.98 C 381.18 141.64 387.78 134.63 394.82 128.12 Z" fill="#131313" />
<path d="M 396.94 143.73 L 398.12 144.16 C 399.36 150.56 399.65 157.06 400.85 163.47 C 401.37 165.81 400.74 168.80 402.84 170.30 C 403.51 175.92 404.91 181.38 405.36 187.02 C 406.28 195.58 408.47 203.31 409.03 212.01 C 408.71 214.77 407.13 217.53 406.11 220.11 C 403.10 227.97 399.70 235.67 396.80 243.59 C 394.74 241.24 392.57 239.00 390.44 236.72 C 392.58 235.54 394.38 239.44 396.52 240.08 C 396.17 237.37 395.96 234.70 396.30 231.97 C 397.50 222.85 395.14 214.24 396.30 205.05 C 397.16 198.31 396.40 191.74 396.15 185.00 C 395.87 178.95 397.00 173.03 396.73 167.00 C 396.63 163.31 395.97 159.68 395.92 156.00 C 395.89 151.88 396.39 147.80 396.94 143.73 Z" fill="#000000" />
<path d="M 293.99 168.79 C 300.74 171.57 307.31 175.26 313.99 178.21 C 320.38 181.10 326.62 184.26 332.91 187.35 C 330.88 189.90 331.60 192.94 331.54 196.00 C 332.12 206.71 331.03 217.29 331.86 228.03 C 332.03 228.83 332.34 229.60 332.78 230.34 C 325.05 239.60 317.23 248.78 309.42 257.97 L 308.87 257.31 C 307.89 257.21 307.69 257.83 308.26 259.16 C 305.70 262.55 302.90 265.75 300.28 269.09 C 296.80 264.67 295.80 259.54 293.52 254.54 C 290.60 247.72 287.98 240.76 285.13 233.91 C 284.59 232.94 284.13 231.25 282.95 230.96 C 280.83 231.58 278.76 232.80 276.81 233.83 C 246.88 248.36 217.08 263.45 187.28 278.27 C 174.29 285.07 160.94 290.93 148.14 298.13 C 140.41 302.45 131.94 304.59 124.58 309.55 C 119.57 312.03 114.50 315.40 109.09 316.79 C 107.03 315.44 106.08 314.34 103.46 314.88 C 103.72 313.97 103.98 313.07 104.24 312.16 C 128.51 291.68 152.65 271.52 176.81 250.82 C 189.96 240.32 202.47 229.12 215.49 218.47 C 227.38 208.34 239.45 198.42 251.39 188.34 C 253.27 186.81 255.26 185.60 257.53 184.71 C 269.75 179.62 281.84 173.87 293.99 168.79 Z" fill="#131313" />
<path d="M 332.91 187.35 C 332.97 201.66 333.22 216.04 332.78 230.34 C 332.34 229.60 332.03 228.83 331.86 228.03 C 331.03 217.29 332.12 206.71 331.54 196.00 C 331.60 192.94 330.88 189.90 332.91 187.35 Z" fill="#000000" />
<path d="M 340.79 195.15 C 344.58 198.70 347.76 202.93 351.66 206.35 C 352.56 207.43 353.46 208.51 354.42 209.53 C 367.40 223.34 380.29 237.24 393.31 251.01 C 383.09 263.15 373.82 276.58 364.15 289.16 C 362.45 291.27 361.48 293.60 358.91 294.72 C 333.84 306.39 308.37 317.81 283.34 329.57 C 290.25 312.61 296.92 295.52 303.82 278.55 C 304.98 274.68 307.78 272.37 310.21 269.18 C 320.31 256.97 330.62 244.92 340.80 232.77 C 340.77 220.23 340.76 207.69 340.79 195.15 Z" fill="#000000" />
<path d="M 379.95 225.53 C 378.44 223.92 376.89 222.33 375.39 220.70 C 377.78 219.19 380.34 223.47 379.95 225.53 Z" fill="#000000" />
<path d="M 282.95 230.96 C 284.13 231.25 284.59 232.94 285.13 233.91 C 287.98 240.76 290.60 247.72 293.52 254.54 C 295.80 259.54 296.80 264.67 300.28 269.09 L 299.72 269.70 C 283.19 274.05 267.20 278.91 250.81 283.39 C 220.82 291.66 188.48 300.87 158.73 308.99 C 134.23 316.12 107.10 323.19 82.36 330.54 C 90.02 324.91 96.89 318.19 104.24 312.16 C 103.98 313.07 103.72 313.97 103.46 314.88 C 106.08 314.34 107.03 315.44 109.09 316.79 C 114.50 315.40 119.57 312.03 124.58 309.55 C 131.94 304.59 140.41 302.45 148.14 298.13 C 160.94 290.93 174.29 285.07 187.28 278.27 C 217.08 263.45 246.88 248.36 276.81 233.83 C 278.76 232.80 280.83 231.58 282.95 230.96 Z" fill="#000000" />
<path d="M 308.87 257.31 L 309.42 257.97 L 308.26 259.16 C 307.69 257.83 307.89 257.21 308.87 257.31 Z" fill="#000000" />
<path d="M 295.11 278.84 L 295.32 278.77 L 295.26 278.92 C 285.71 302.45 276.57 326.11 267.09 349.66 C 274.20 358.02 280.46 367.07 287.28 375.67 C 288.46 376.98 289.44 379.11 291.00 379.93 C 299.28 380.26 307.60 380.04 315.88 380.00 C 318.87 383.76 321.99 387.39 325.15 391.01 C 300.34 390.99 275.53 391.01 250.72 391.00 C 253.81 387.52 256.59 383.81 259.33 380.05 C 265.23 380.19 271.13 379.91 277.03 379.99 C 268.77 369.06 260.07 358.18 251.65 347.35 C 250.12 345.34 248.81 343.26 248.22 340.77 C 247.38 336.80 245.80 333.07 244.85 329.14 C 225.55 323.38 205.46 318.46 185.97 313.14 C 187.04 312.95 188.09 312.68 189.11 312.34 C 187.72 312.10 186.32 311.87 184.91 311.66 C 187.71 310.07 192.27 310.13 194.04 307.36 C 226.60 297.86 261.86 288.60 295.11 278.84 Z" fill="#000000" />
<path d="M 194.04 307.36 C 192.27 310.13 187.71 310.07 184.91 311.66 C 186.32 311.87 187.72 312.10 189.11 312.34 C 188.09 312.68 187.04 312.95 185.97 313.14 C 183.67 312.73 181.42 311.97 179.14 311.43 C 183.99 309.84 189.09 308.66 194.04 307.36 Z" fill="#000000" />
<path d="M 168.39 316.62 C 178.77 319.20 189.05 322.40 199.54 324.48 C 178.17 334.41 156.05 342.98 134.60 352.74 C 127.01 355.51 119.68 359.12 112.20 362.18 C 109.49 363.34 106.91 362.83 104.00 362.91 C 93.22 363.04 82.45 363.02 71.67 362.97 C 74.16 360.69 77.18 359.03 79.88 357.00 C 92.71 347.79 105.47 338.46 118.30 329.27 C 121.65 326.76 125.37 326.50 129.26 325.31 C 137.79 322.76 146.35 320.59 154.84 318.07 C 159.91 317.24 163.19 314.34 168.39 316.62 Z" fill="#000000" />
<path d="M 325.58 318.46 C 321.17 327.44 316.71 336.47 312.40 345.47 C 311.78 346.77 311.51 348.29 312.59 349.43 C 321.75 359.38 330.38 369.82 339.26 380.01 C 347.48 380.39 355.75 379.82 363.98 380.17 C 367.40 383.41 370.10 387.50 373.30 390.99 C 361.18 390.97 349.07 391.02 336.96 391.00 C 335.46 391.12 334.79 390.17 333.87 389.20 C 321.39 375.40 308.97 361.32 296.64 347.35 C 293.25 344.24 292.92 338.55 291.69 334.24 C 302.92 328.84 314.33 323.81 325.58 318.46 Z" fill="#000000" />
</svg>